<?xml version="1.0" encoding="UTF-8" standalone="no"?>
<!DOCTYPE svg PUBLIC "-//W3C//DTD SVG 1.1//EN"
 "http://www.w3.org/Graphics/SVG/1.1/DTD/svg11.dtd">
<!-- Generated by graphviz version 2.36.0 (20140111.2315)
 -->
<!-- Title: controllers_diagram Pages: 1 -->
<svg width="613pt" height="577pt"
 viewBox="0.00 0.00 613.00 577.00" xmlns="http://www.w3.org/2000/svg" xmlns:xlink="http://www.w3.org/1999/xlink">
<g id="graph0" class="graph" transform="scale(1 1) rotate(0) translate(4 573)">
<title>controllers_diagram</title>
<polygon fill="none" stroke="none" points="-4,4 -4,-573 609,-573 609,4 -4,4"/>
<!-- _diagram_info -->
<g id="node1" class="node"><title>_diagram_info</title>
<text text-anchor="start" x="399" y="-437.6" font-family="Times,serif" font-size="13.00">Controllers diagram</text>
<text text-anchor="start" x="399" y="-423.6" font-family="Times,serif" font-size="13.00">Date: May 30 2018 &#45; 15:05</text>
<text text-anchor="start" x="399" y="-409.6" font-family="Times,serif" font-size="13.00">Migration version: 20180529200936</text>
<text text-anchor="start" x="399" y="-395.6" font-family="Times,serif" font-size="13.00">Generated by RailRoady 1.5.3</text>
<text text-anchor="start" x="399" y="-381.6" font-family="Times,serif" font-size="13.00">http://railroady.prestonlee.com</text>
</g>
<!-- ApplicationController -->
<g id="node2" class="node"><title>ApplicationController</title>
<path fill="none" stroke="black" d="M12,-425.5C12,-425.5 124,-425.5 124,-425.5 130,-425.5 136,-431.5 136,-437.5 136,-437.5 136,-507.5 136,-507.5 136,-513.5 130,-519.5 124,-519.5 124,-519.5 12,-519.5 12,-519.5 6,-519.5 0,-513.5 0,-507.5 0,-507.5 0,-437.5 0,-437.5 0,-431.5 6,-425.5 12,-425.5"/>
<text text-anchor="middle" x="68" y="-504.3" font-family="Times,serif" font-size="14.00">ApplicationController</text>
<polyline fill="none" stroke="black" points="0,-496.5 136,-496.5 "/>
<polyline fill="none" stroke="black" points="0,-472.5 136,-472.5 "/>
<polyline fill="none" stroke="black" points="0,-448.5 136,-448.5 "/>
<text text-anchor="start" x="8" y="-433.3" font-family="Times,serif" font-size="14.00">_layout</text>
</g>
<!-- CasesController -->
<g id="node3" class="node"><title>CasesController</title>
<path fill="none" stroke="black" d="M165,-68.5C165,-68.5 260,-68.5 260,-68.5 266,-68.5 272,-74.5 272,-80.5 272,-80.5 272,-299.5 272,-299.5 272,-305.5 266,-311.5 260,-311.5 260,-311.5 165,-311.5 165,-311.5 159,-311.5 153,-305.5 153,-299.5 153,-299.5 153,-80.5 153,-80.5 153,-74.5 159,-68.5 165,-68.5"/>
<text text-anchor="middle" x="212.5" y="-296.3" font-family="Times,serif" font-size="14.00">CasesController</text>
<polyline fill="none" stroke="black" points="153,-288.5 272,-288.5 "/>
<text text-anchor="start" x="161" y="-273.3" font-family="Times,serif" font-size="14.00">create</text>
<text text-anchor="start" x="161" y="-258.3" font-family="Times,serif" font-size="14.00">destroy</text>
<text text-anchor="start" x="161" y="-243.3" font-family="Times,serif" font-size="14.00">edit</text>
<text text-anchor="start" x="161" y="-228.3" font-family="Times,serif" font-size="14.00">index</text>
<text text-anchor="start" x="161" y="-213.3" font-family="Times,serif" font-size="14.00">new</text>
<text text-anchor="start" x="161" y="-198.3" font-family="Times,serif" font-size="14.00">show</text>
<text text-anchor="start" x="161" y="-183.3" font-family="Times,serif" font-size="14.00">update</text>
<polyline fill="none" stroke="black" points="153,-175.5 272,-175.5 "/>
<polyline fill="none" stroke="black" points="153,-151.5 272,-151.5 "/>
<text text-anchor="start" x="161" y="-136.3" font-family="Times,serif" font-size="14.00">_layout</text>
<text text-anchor="start" x="161" y="-121.3" font-family="Times,serif" font-size="14.00">case_params</text>
<text text-anchor="start" x="161" y="-106.3" font-family="Times,serif" font-size="14.00">require_admin</text>
<text text-anchor="start" x="161" y="-91.3" font-family="Times,serif" font-size="14.00">require_same_user</text>
<text text-anchor="start" x="161" y="-76.3" font-family="Times,serif" font-size="14.00">set_case</text>
</g>
<!-- TeamsController -->
<g id="node4" class="node"><title>TeamsController</title>
<path fill="none" stroke="black" d="M182,-340.5C182,-340.5 267,-340.5 267,-340.5 273,-340.5 279,-346.5 279,-352.5 279,-352.5 279,-556.5 279,-556.5 279,-562.5 273,-568.5 267,-568.5 267,-568.5 182,-568.5 182,-568.5 176,-568.5 170,-562.5 170,-556.5 170,-556.5 170,-352.5 170,-352.5 170,-346.5 176,-340.5 182,-340.5"/>
<text text-anchor="middle" x="224.5" y="-553.3" font-family="Times,serif" font-size="14.00">TeamsController</text>
<polyline fill="none" stroke="black" points="170,-545.5 279,-545.5 "/>
<text text-anchor="start" x="178" y="-530.3" font-family="Times,serif" font-size="14.00">create</text>
<text text-anchor="start" x="178" y="-515.3" font-family="Times,serif" font-size="14.00">destroy</text>
<text text-anchor="start" x="178" y="-500.3" font-family="Times,serif" font-size="14.00">edit</text>
<text text-anchor="start" x="178" y="-485.3" font-family="Times,serif" font-size="14.00">index</text>
<text text-anchor="start" x="178" y="-470.3" font-family="Times,serif" font-size="14.00">new</text>
<text text-anchor="start" x="178" y="-455.3" font-family="Times,serif" font-size="14.00">show</text>
<text text-anchor="start" x="178" y="-440.3" font-family="Times,serif" font-size="14.00">update</text>
<polyline fill="none" stroke="black" points="170,-432.5 279,-432.5 "/>
<polyline fill="none" stroke="black" points="170,-408.5 279,-408.5 "/>
<text text-anchor="start" x="178" y="-393.3" font-family="Times,serif" font-size="14.00">_layout</text>
<text text-anchor="start" x="178" y="-378.3" font-family="Times,serif" font-size="14.00">require_admin</text>
<text text-anchor="start" x="178" y="-363.3" font-family="Times,serif" font-size="14.00">set_team</text>
<text text-anchor="start" x="178" y="-348.3" font-family="Times,serif" font-size="14.00">team_params</text>
</g>
<!-- PositionsController -->
<g id="node5" class="node"><title>PositionsController</title>
<path fill="none" stroke="black" d="M318,-119.5C318,-119.5 416,-119.5 416,-119.5 422,-119.5 428,-125.5 428,-131.5 428,-131.5 428,-335.5 428,-335.5 428,-341.5 422,-347.5 416,-347.5 416,-347.5 318,-347.5 318,-347.5 312,-347.5 306,-341.5 306,-335.5 306,-335.5 306,-131.5 306,-131.5 306,-125.5 312,-119.5 318,-119.5"/>
<text text-anchor="middle" x="367" y="-332.3" font-family="Times,serif" font-size="14.00">PositionsController</text>
<polyline fill="none" stroke="black" points="306,-324.5 428,-324.5 "/>
<text text-anchor="start" x="314" y="-309.3" font-family="Times,serif" font-size="14.00">create</text>
<text text-anchor="start" x="314" y="-294.3" font-family="Times,serif" font-size="14.00">destroy</text>
<text text-anchor="start" x="314" y="-279.3" font-family="Times,serif" font-size="14.00">edit</text>
<text text-anchor="start" x="314" y="-264.3" font-family="Times,serif" font-size="14.00">index</text>
<text text-anchor="start" x="314" y="-249.3" font-family="Times,serif" font-size="14.00">new</text>
<text text-anchor="start" x="314" y="-234.3" font-family="Times,serif" font-size="14.00">show</text>
<text text-anchor="start" x="314" y="-219.3" font-family="Times,serif" font-size="14.00">update</text>
<polyline fill="none" stroke="black" points="306,-211.5 428,-211.5 "/>
<polyline fill="none" stroke="black" points="306,-187.5 428,-187.5 "/>
<text text-anchor="start" x="314" y="-172.3" font-family="Times,serif" font-size="14.00">_layout</text>
<text text-anchor="start" x="314" y="-157.3" font-family="Times,serif" font-size="14.00">position_params</text>
<text text-anchor="start" x="314" y="-142.3" font-family="Times,serif" font-size="14.00">require_admin</text>
<text text-anchor="start" x="314" y="-127.3" font-family="Times,serif" font-size="14.00">set_position</text>
</g>
<!-- User::RegistrationsController -->
<g id="node6" class="node"><title>User::RegistrationsController</title>
<path fill="none" stroke="black" d="M318,-0.5C318,-0.5 488,-0.5 488,-0.5 494,-0.5 500,-6.5 500,-12.5 500,-12.5 500,-81.5 500,-81.5 500,-87.5 494,-93.5 488,-93.5 488,-93.5 318,-93.5 318,-93.5 312,-93.5 306,-87.5 306,-81.5 306,-81.5 306,-12.5 306,-12.5 306,-6.5 312,-0.5 318,-0.5"/>
<text text-anchor="middle" x="403" y="-78.3" font-family="Times,serif" font-size="14.00">User::RegistrationsController</text>
<polyline fill="none" stroke="black" points="306,-70.5 500,-70.5 "/>
<polyline fill="none" stroke="black" points="306,-46.5 500,-46.5 "/>
<text text-anchor="start" x="314" y="-31.3" font-family="Times,serif" font-size="14.00">configure_permitted_parameters</text>
<polyline fill="none" stroke="black" points="306,-23.5 500,-23.5 "/>
<text text-anchor="start" x="314" y="-8.3" font-family="Times,serif" font-size="14.00">_layout</text>
</g>
<!-- WelcomeController -->
<g id="node7" class="node"><title>WelcomeController</title>
<path fill="none" stroke="black" d="M12,-306.5C12,-306.5 113,-306.5 113,-306.5 119,-306.5 125,-312.5 125,-318.5 125,-318.5 125,-387.5 125,-387.5 125,-393.5 119,-399.5 113,-399.5 113,-399.5 12,-399.5 12,-399.5 6,-399.5 0,-393.5 0,-387.5 0,-387.5 0,-318.5 0,-318.5 0,-312.5 6,-306.5 12,-306.5"/>
<text text-anchor="middle" x="62.5" y="-384.3" font-family="Times,serif" font-size="14.00">WelcomeController</text>
<polyline fill="none" stroke="black" points="0,-376.5 125,-376.5 "/>
<text text-anchor="start" x="8" y="-361.3" font-family="Times,serif" font-size="14.00">index</text>
<polyline fill="none" stroke="black" points="0,-353.5 125,-353.5 "/>
<polyline fill="none" stroke="black" points="0,-329.5 125,-329.5 "/>
<text text-anchor="start" x="8" y="-314.3" font-family="Times,serif" font-size="14.00">_layout</text>
</g>
<!-- MyworkController -->
<g id="node8" class="node"><title>MyworkController</title>
<path fill="none" stroke="black" d="M12,-170.5C12,-170.5 107,-170.5 107,-170.5 113,-170.5 119,-176.5 119,-182.5 119,-182.5 119,-266.5 119,-266.5 119,-272.5 113,-278.5 107,-278.5 107,-278.5 12,-278.5 12,-278.5 6,-278.5 0,-272.5 0,-266.5 0,-266.5 0,-182.5 0,-182.5 0,-176.5 6,-170.5 12,-170.5"/>
<text text-anchor="middle" x="59.5" y="-263.3" font-family="Times,serif" font-size="14.00">MyworkController</text>
<polyline fill="none" stroke="black" points="0,-255.5 119,-255.5 "/>
<text text-anchor="start" x="8" y="-240.3" font-family="Times,serif" font-size="14.00">myteams</text>
<text text-anchor="start" x="8" y="-225.3" font-family="Times,serif" font-size="14.00">show</text>
<polyline fill="none" stroke="black" points="0,-217.5 119,-217.5 "/>
<polyline fill="none" stroke="black" points="0,-193.5 119,-193.5 "/>
<text text-anchor="start" x="8" y="-178.3" font-family="Times,serif" font-size="14.00">_layout</text>
</g>
</g>
</svg>
