<?xml version="1.0" encoding="UTF-8" standalone="no"?>
<!DOCTYPE svg PUBLIC "-//W3C//DTD SVG 1.1//EN"
 "http://www.w3.org/Graphics/SVG/1.1/DTD/svg11.dtd">
<!-- Generated by graphviz version 2.36.0 (20140111.2315)
 -->
<!-- Title: models_diagram Pages: 1 -->
<svg width="400pt" height="230pt"
 viewBox="0.00 0.00 400.00 230.00" xmlns="http://www.w3.org/2000/svg" xmlns:xlink="http://www.w3.org/1999/xlink">
<g id="graph0" class="graph" transform="scale(1 1) rotate(0) translate(4 226)">
<title>models_diagram</title>
<polygon fill="none" stroke="none" points="-4,4 -4,-226 396,-226 396,4 -4,4"/>
<!-- _diagram_info -->
<g id="node1" class="node"><title>_diagram_info</title>
<text text-anchor="start" x="8" y="-207.6" font-family="Times,serif" font-size="13.00">Models diagram</text>
<text text-anchor="start" x="8" y="-193.6" font-family="Times,serif" font-size="13.00">Date: May 30 2018 &#45; 15:05</text>
<text text-anchor="start" x="8" y="-179.6" font-family="Times,serif" font-size="13.00">Migration version: 20180529200936</text>
<text text-anchor="start" x="8" y="-165.6" font-family="Times,serif" font-size="13.00">Generated by RailRoady 1.5.3</text>
<text text-anchor="start" x="8" y="-151.6" font-family="Times,serif" font-size="13.00">http://railroady.prestonlee.com</text>
</g>
<!-- Position -->
<g id="node2" class="node"><title>Position</title>
<ellipse fill="none" stroke="black" cx="272" cy="-183" rx="39.4691" ry="18"/>
<text text-anchor="middle" x="272" y="-179.3" font-family="Times,serif" font-size="14.00">Position</text>
</g>
<!-- User -->
<g id="node4" class="node"><title>User</title>
<ellipse fill="none" stroke="black" cx="316" cy="-90" rx="26.949" ry="18"/>
<text text-anchor="middle" x="316" y="-86.3" font-family="Times,serif" font-size="14.00">User</text>
</g>
<!-- Position&#45;&gt;User -->
<g id="edge1" class="edge"><title>Position&#45;&gt;User</title>
<path fill="none" stroke="#cacbb7" d="M283.664,-157.877C289.823,-145.139 297.38,-129.509 303.64,-116.563"/>
<ellipse fill="none" stroke="#cacbb7" cx="281.812" cy="-161.708" rx="4.00002" ry="4.00002"/>
<polygon fill="#cacbb7" stroke="#cacbb7" points="303.776,-116.282 312.18,-109.238 305.952,-111.78 308.129,-107.279 308.129,-107.279 308.129,-107.279 305.952,-111.78 304.078,-105.32 303.776,-116.282 303.776,-116.282"/>
</g>
<!-- Team -->
<g id="node3" class="node"><title>Team</title>
<ellipse fill="none" stroke="black" cx="361" cy="-183" rx="31.2965" ry="18"/>
<text text-anchor="middle" x="361" y="-179.3" font-family="Times,serif" font-size="14.00">Team</text>
</g>
<!-- Team&#45;&gt;User -->
<g id="edge2" class="edge"><title>Team&#45;&gt;User</title>
<path fill="none" stroke="#342aa4" d="M349.071,-157.877C342.772,-145.139 335.043,-129.509 328.641,-116.563"/>
<ellipse fill="none" stroke="#342aa4" cx="350.973" cy="-161.724" rx="4.00002" ry="4.00002"/>
<polygon fill="#342aa4" stroke="#342aa4" points="328.483,-116.243 328.084,-105.284 326.266,-111.761 324.05,-107.279 324.05,-107.279 324.05,-107.279 326.266,-111.761 320.016,-109.274 328.483,-116.243 328.483,-116.243"/>
</g>
<!-- Case -->
<g id="node5" class="node"><title>Case</title>
<ellipse fill="none" stroke="black" cx="316" cy="-18" rx="27.4223" ry="18"/>
<text text-anchor="middle" x="316" y="-14.3" font-family="Times,serif" font-size="14.00">Case</text>
</g>
<!-- User&#45;&gt;Case -->
<g id="edge3" class="edge"><title>User&#45;&gt;Case</title>
<path fill="none" stroke="#59950e" d="M316,-63.6398C316,-58.0629 316,-52.1319 316,-46.4761"/>
<ellipse fill="none" stroke="#59950e" cx="316" cy="-67.6966" rx="4" ry="4"/>
<polygon fill="#59950e" stroke="#59950e" points="316,-46.1043 320.5,-36.1043 316,-41.1043 316,-36.1043 316,-36.1043 316,-36.1043 316,-41.1043 311.5,-36.1044 316,-46.1043 316,-46.1043"/>
</g>
</g>
</svg>
