<?xml version="1.0" encoding="UTF-8" standalone="no"?>
<!DOCTYPE svg PUBLIC "-//W3C//DTD SVG 1.1//EN"
 "http://www.w3.org/Graphics/SVG/1.1/DTD/svg11.dtd">
<!-- Generated by graphviz version 2.36.0 (20140111.2315)
 -->
<!-- Title: models_diagram Pages: 1 -->
<svg width="538pt" height="674pt"
 viewBox="0.00 0.00 538.00 674.00" xmlns="http://www.w3.org/2000/svg" xmlns:xlink="http://www.w3.org/1999/xlink">
<g id="graph0" class="graph" transform="scale(1 1) rotate(0) translate(4 670)">
<title>models_diagram</title>
<polygon fill="none" stroke="none" points="-4,4 -4,-670 534,-670 534,4 -4,4"/>
<!-- _diagram_info -->
<g id="node1" class="node"><title>_diagram_info</title>
<text text-anchor="start" x="8" y="-636.6" font-family="Times,serif" font-size="13.00">Models diagram</text>
<text text-anchor="start" x="8" y="-622.6" font-family="Times,serif" font-size="13.00">Date: May 30 2018 &#45; 15:05</text>
<text text-anchor="start" x="8" y="-608.6" font-family="Times,serif" font-size="13.00">Migration version: 20180529200936</text>
<text text-anchor="start" x="8" y="-594.6" font-family="Times,serif" font-size="13.00">Generated by RailRoady 1.5.3</text>
<text text-anchor="start" x="8" y="-580.6" font-family="Times,serif" font-size="13.00">http://railroady.prestonlee.com</text>
</g>
<!-- Position -->
<g id="node2" class="node"><title>Position</title>
<path fill="none" stroke="black" d="M244.5,-566.5C244.5,-566.5 351.5,-566.5 351.5,-566.5 357.5,-566.5 363.5,-572.5 363.5,-578.5 363.5,-578.5 363.5,-645.5 363.5,-645.5 363.5,-651.5 357.5,-657.5 351.5,-657.5 351.5,-657.5 244.5,-657.5 244.5,-657.5 238.5,-657.5 232.5,-651.5 232.5,-645.5 232.5,-645.5 232.5,-578.5 232.5,-578.5 232.5,-572.5 238.5,-566.5 244.5,-566.5"/>
<text text-anchor="middle" x="298" y="-642.3" font-family="Times,serif" font-size="14.00">Position</text>
<polyline fill="none" stroke="black" points="232.5,-634.5 363.5,-634.5 "/>
<text text-anchor="start" x="240.5" y="-619.3" font-family="Times,serif" font-size="14.00">id :INTEGER</text>
<text text-anchor="start" x="240.5" y="-604.3" font-family="Times,serif" font-size="14.00">name :varchar</text>
<text text-anchor="start" x="240.5" y="-589.3" font-family="Times,serif" font-size="14.00">created_at :datetime</text>
<text text-anchor="start" x="240.5" y="-574.3" font-family="Times,serif" font-size="14.00">updated_at :datetime</text>
</g>
<!-- User -->
<g id="node4" class="node"><title>User</title>
<path fill="none" stroke="black" d="M289,-175C289,-175 465,-175 465,-175 471,-175 477,-181 477,-187 477,-187 477,-509 477,-509 477,-515 471,-521 465,-521 465,-521 289,-521 289,-521 283,-521 277,-515 277,-509 277,-509 277,-187 277,-187 277,-181 283,-175 289,-175"/>
<text text-anchor="middle" x="377" y="-505.8" font-family="Times,serif" font-size="14.00">User</text>
<polyline fill="none" stroke="black" points="277,-498 477,-498 "/>
<text text-anchor="start" x="285" y="-482.8" font-family="Times,serif" font-size="14.00">id :INTEGER</text>
<text text-anchor="start" x="285" y="-467.8" font-family="Times,serif" font-size="14.00">email :varchar</text>
<text text-anchor="start" x="285" y="-452.8" font-family="Times,serif" font-size="14.00">encrypted_password :varchar</text>
<text text-anchor="start" x="285" y="-437.8" font-family="Times,serif" font-size="14.00">reset_password_token :varchar</text>
<text text-anchor="start" x="285" y="-422.8" font-family="Times,serif" font-size="14.00">reset_password_sent_at :datetime</text>
<text text-anchor="start" x="285" y="-407.8" font-family="Times,serif" font-size="14.00">remember_created_at :datetime</text>
<text text-anchor="start" x="285" y="-392.8" font-family="Times,serif" font-size="14.00">sign_in_count :integer</text>
<text text-anchor="start" x="285" y="-377.8" font-family="Times,serif" font-size="14.00">current_sign_in_at :datetime</text>
<text text-anchor="start" x="285" y="-362.8" font-family="Times,serif" font-size="14.00">last_sign_in_at :datetime</text>
<text text-anchor="start" x="285" y="-347.8" font-family="Times,serif" font-size="14.00">current_sign_in_ip :varchar</text>
<text text-anchor="start" x="285" y="-332.8" font-family="Times,serif" font-size="14.00">last_sign_in_ip :varchar</text>
<text text-anchor="start" x="285" y="-317.8" font-family="Times,serif" font-size="14.00">confirmation_token :varchar</text>
<text text-anchor="start" x="285" y="-302.8" font-family="Times,serif" font-size="14.00">confirmed_at :datetime</text>
<text text-anchor="start" x="285" y="-287.8" font-family="Times,serif" font-size="14.00">confirmation_sent_at :datetime</text>
<text text-anchor="start" x="285" y="-272.8" font-family="Times,serif" font-size="14.00">unconfirmed_email :varchar</text>
<text text-anchor="start" x="285" y="-257.8" font-family="Times,serif" font-size="14.00">created_at :datetime</text>
<text text-anchor="start" x="285" y="-242.8" font-family="Times,serif" font-size="14.00">updated_at :datetime</text>
<text text-anchor="start" x="285" y="-227.8" font-family="Times,serif" font-size="14.00">name :varchar</text>
<text text-anchor="start" x="285" y="-212.8" font-family="Times,serif" font-size="14.00">admin :boolean</text>
<text text-anchor="start" x="285" y="-197.8" font-family="Times,serif" font-size="14.00">team_id :integer</text>
<text text-anchor="start" x="285" y="-182.8" font-family="Times,serif" font-size="14.00">position_id :integer</text>
</g>
<!-- Position&#45;&gt;User -->
<g id="edge1" class="edge"><title>Position&#45;&gt;User</title>
<path fill="none" stroke="#1d588b" d="M313.812,-558.56C316.395,-549.992 319.193,-540.714 322.125,-530.992"/>
<ellipse fill="none" stroke="#1d588b" cx="312.646" cy="-562.429" rx="4.00001" ry="4.00001"/>
<polygon fill="#1d588b" stroke="#1d588b" points="322.211,-530.706 329.406,-522.431 323.654,-525.919 325.098,-521.132 325.098,-521.132 325.098,-521.132 323.654,-525.919 320.789,-519.832 322.211,-530.706 322.211,-530.706"/>
</g>
<!-- Team -->
<g id="node3" class="node"><title>Team</title>
<path fill="none" stroke="black" d="M393.5,-559C393.5,-559 518.5,-559 518.5,-559 524.5,-559 530.5,-565 530.5,-571 530.5,-571 530.5,-653 530.5,-653 530.5,-659 524.5,-665 518.5,-665 518.5,-665 393.5,-665 393.5,-665 387.5,-665 381.5,-659 381.5,-653 381.5,-653 381.5,-571 381.5,-571 381.5,-565 387.5,-559 393.5,-559"/>
<text text-anchor="middle" x="456" y="-649.8" font-family="Times,serif" font-size="14.00">Team</text>
<polyline fill="none" stroke="black" points="381.5,-642 530.5,-642 "/>
<text text-anchor="start" x="389.5" y="-626.8" font-family="Times,serif" font-size="14.00">id :INTEGER</text>
<text text-anchor="start" x="389.5" y="-611.8" font-family="Times,serif" font-size="14.00">name :varchar</text>
<text text-anchor="start" x="389.5" y="-596.8" font-family="Times,serif" font-size="14.00">created_at :datetime</text>
<text text-anchor="start" x="389.5" y="-581.8" font-family="Times,serif" font-size="14.00">updated_at :datetime</text>
<text text-anchor="start" x="389.5" y="-566.8" font-family="Times,serif" font-size="14.00">manager_email :varchar</text>
</g>
<!-- Team&#45;&gt;User -->
<g id="edge2" class="edge"><title>Team&#45;&gt;User</title>
<path fill="none" stroke="#9b0636" d="M437.97,-551.204C436.023,-544.746 433.975,-537.955 431.858,-530.934"/>
<ellipse fill="none" stroke="#9b0636" cx="439.143" cy="-555.094" rx="4.00001" ry="4.00001"/>
<polygon fill="#9b0636" stroke="#9b0636" points="431.817,-530.799 433.239,-519.926 430.374,-526.012 428.93,-521.225 428.93,-521.225 428.93,-521.225 430.374,-526.012 424.622,-522.524 431.817,-530.799 431.817,-530.799"/>
</g>
<!-- Case -->
<g id="node5" class="node"><title>Case</title>
<path fill="none" stroke="black" d="M323.5,-1C323.5,-1 430.5,-1 430.5,-1 436.5,-1 442.5,-7 442.5,-13 442.5,-13 442.5,-125 442.5,-125 442.5,-131 436.5,-137 430.5,-137 430.5,-137 323.5,-137 323.5,-137 317.5,-137 311.5,-131 311.5,-125 311.5,-125 311.5,-13 311.5,-13 311.5,-7 317.5,-1 323.5,-1"/>
<text text-anchor="middle" x="377" y="-121.8" font-family="Times,serif" font-size="14.00">Case</text>
<polyline fill="none" stroke="black" points="311.5,-114 442.5,-114 "/>
<text text-anchor="start" x="319.5" y="-98.8" font-family="Times,serif" font-size="14.00">id :INTEGER</text>
<text text-anchor="start" x="319.5" y="-83.8" font-family="Times,serif" font-size="14.00">public_id :varchar</text>
<text text-anchor="start" x="319.5" y="-68.8" font-family="Times,serif" font-size="14.00">status_id :varchar</text>
<text text-anchor="start" x="319.5" y="-53.8" font-family="Times,serif" font-size="14.00">action_plan :text</text>
<text text-anchor="start" x="319.5" y="-38.8" font-family="Times,serif" font-size="14.00">created_at :datetime</text>
<text text-anchor="start" x="319.5" y="-23.8" font-family="Times,serif" font-size="14.00">updated_at :datetime</text>
<text text-anchor="start" x="319.5" y="-8.8" font-family="Times,serif" font-size="14.00">user_id :integer</text>
</g>
<!-- User&#45;&gt;Case -->
<g id="edge3" class="edge"><title>User&#45;&gt;Case</title>
<path fill="none" stroke="#06729d" d="M377,-166.499C377,-159.984 377,-153.605 377,-147.429"/>
<ellipse fill="none" stroke="#06729d" cx="377" cy="-170.722" rx="4" ry="4"/>
<polygon fill="#06729d" stroke="#06729d" points="377,-147.239 381.5,-137.239 377,-142.239 377,-137.239 377,-137.239 377,-137.239 377,-142.239 372.5,-137.239 377,-147.239 377,-147.239"/>
</g>
</g>
</svg>
